<svg width="37" height="53" viewBox="0 0 37 53" fill="none" xmlns="http://www.w3.org/2000/svg">
<path d="M11.6469 33.848L7 23C8.56137 23.2993 9.75718 24.3092 10.1599 24.7768L16.9444 34.1285C19.2493 35.1759 30.5923 38.4615 34 39.459L33.3415 44.2838L29.5773 47.0451L28.4484 47.9142C23.8944 47.9142 20.9408 48.0626 20.1043 47.9691C19.2679 47.8756 18.9891 47.5015 19.2679 47.1274C19.5467 46.7534 19.8255 46.3793 20.1043 46.2858L24.0078 44.7895L21.3125 42.6386C15.5132 42.5638 12.7002 42.171 12.0187 41.984C11.6469 41.7595 11.8638 41.3294 12.0187 41.1423C13.041 40.3942 16.046 39.8019 17.3162 39.459C17.3162 39.459 15.8292 38.2043 14.2492 36.9341C12.6693 35.6638 11.9877 34.5961 11.6469 33.848Z" fill="white"/>
<rect x="2" y="2" width="33" height="49" rx="12" stroke="white" stroke-width="4"/>
</svg>
