<?xml version="1.0" encoding="utf-8"?>
<!-- Generator: Adobe Illustrator 19.0.0, SVG Export Plug-In . SVG Version: 6.00 Build 0)  -->
<svg version="1.0" xmlns="http://www.w3.org/2000/svg" xmlns:xlink="http://www.w3.org/1999/xlink" x="0px" y="0px"
	 viewBox="0 0 2000 2000" enable-background="new 0 0 2000 2000" xml:space="preserve">
<g id="Bot_Aperature">
	<path opacity="0.4" fill="#942C34" d="M579.1,854.1c-10.6-23.9-18.5-48.7-23.9-74.5L438.4,896.4c25.3,63.6,63.9,121.3,115.7,172.9
		c8.2,8.1,16.5,15.8,24.9,23.2V854.1z"/>
</g>
<g id="Mid_Aperature">
	<path opacity="0.6" fill="#942C34" d="M446.5,481.1c-29.5,65.7-44.3,138-44.3,217.1c0,25.6,1.6,50.4,4.8,74.6l146.1-146.2
		c9.3-52.8,29.1-101.3,59.6-145.5H446.5z"/>
</g>
<g id="Top_Aperature">
	<path fill="#942C34" d="M723.6,371.5c38.3-25.4,79.8-42.8,124.5-51.9L737.2,208.7c-67.5,25-128.6,64.4-183,118.4
		c-14.3,14.3-27.6,29.1-39.9,44.3H723.6z"/>
</g>
<g id="Diagonal_Arm">
	<path opacity="0.4" fill="#942C34" d="M894.9,1104.3l702.9,703.7h-181.4l-612.8-612.4L894.9,1104.3z"/>
</g>
<g id="Down_Arm">
	<path fill="#942C34" d="M691,646.1V1803h129V657.3v-11.2V481.5C691,500.5,691,646.1,691,646.1z"/>
</g>
<g id="Circle">
	<path fill="#942C34" d="M1298.4,1069.7c101.3-100.6,152-224.3,152-371.1c0-146.8-50.6-270.4-152-371
		c-101.4-100.6-225.3-151-372.1-151c-28.2,0-55.5,1.9-82,5.6l133.3,133.3c82.5,10.6,154.8,47.4,216.6,110.5
		c74.3,75.9,111.5,166.8,111.5,272.6c0,104.3-37.2,194.8-111.5,271.5c-74.3,76.7-160.9,114.9-265.2,114.9c-65,0-126-14.9-175-44.7
		v152c49,18.8,111.5,28.2,175,28.2C1075.7,1220.7,1197.1,1170.3,1298.4,1069.7z"/>
</g>
</svg>
