<svg width="30" height="30" viewBox="0 0 30 30" fill="none" xmlns="http://www.w3.org/2000/svg">
<path fill-rule="evenodd" clip-rule="evenodd" d="M14.8187 0C6.78228 0 0.285645 6.54453 0.285645 14.641C0.285645 21.113 4.44826 26.5913 10.2229 28.5303C10.9449 28.6761 11.2094 28.2153 11.2094 27.8276C11.2094 27.4882 11.1856 26.3248 11.1856 25.1126C7.14283 25.9854 6.30096 23.3672 6.30096 23.3672C5.65127 21.6704 4.68863 21.2343 4.68863 21.2343C3.36544 20.3374 4.78501 20.3374 4.78501 20.3374C6.25277 20.4344 7.02294 21.8403 7.02294 21.8403C8.32203 24.0702 10.4154 23.4401 11.2576 23.0522C11.3777 22.1068 11.763 21.4524 12.172 21.0889C8.94763 20.7494 5.55518 19.489 5.55518 13.8652C5.55518 12.2653 6.13229 10.9564 7.04674 9.93847C6.90246 9.57495 6.39705 8.07179 7.19131 6.05994C7.19131 6.05994 8.41841 5.67203 11.1853 7.5628C12.3698 7.24232 13.5915 7.07928 14.8187 7.07791C16.0458 7.07791 17.2967 7.24777 18.4518 7.5628C21.2189 5.67203 22.446 6.05994 22.446 6.05994C23.2403 8.07179 22.7346 9.57495 22.5903 9.93847C23.5288 10.9564 24.0822 12.2653 24.0822 13.8652C24.0822 19.489 20.6897 20.725 17.4412 21.0889C17.9708 21.5494 18.4277 22.4219 18.4277 23.8036C18.4277 25.767 18.4039 27.3428 18.4039 27.8273C18.4039 28.2153 18.6686 28.6761 19.3903 28.5306C25.165 26.591 29.3276 21.113 29.3276 14.641C29.3514 6.54453 22.831 0 14.8187 0Z" fill="white"/>
</svg>
