<svg width="30" height="30" viewBox="0 0 30 30" fill="none" xmlns="http://www.w3.org/2000/svg">
<g clip-path="url(#clip0_31_178)">
<path d="M14.521 2.61492C18.4008 2.61492 18.8603 2.63193 20.3861 2.7C21.8042 2.76239 22.57 3.00063 23.0805 3.19916C23.7555 3.46008 24.2433 3.77773 24.7481 4.28256C25.2586 4.79307 25.5706 5.27521 25.8315 5.95021C26.03 6.46071 26.2683 7.23214 26.3307 8.64454C26.3987 10.1761 26.4158 10.6355 26.4158 14.5097C26.4158 18.3895 26.3987 18.849 26.3307 20.3748C26.2683 21.7929 26.03 22.5586 25.8315 23.0691C25.5706 23.7441 25.2529 24.2319 24.7481 24.7368C24.2376 25.2473 23.7555 25.5592 23.0805 25.8202C22.57 26.0187 21.7985 26.2569 20.3861 26.3193C18.8546 26.3874 18.3952 26.4044 14.521 26.4044C10.6412 26.4044 10.1817 26.3874 8.65588 26.3193C7.23782 26.2569 6.47206 26.0187 5.96155 25.8202C5.28655 25.5592 4.79874 25.2416 4.29391 24.7368C3.7834 24.2263 3.47143 23.7441 3.2105 23.0691C3.01197 22.5586 2.77374 21.7872 2.71134 20.3748C2.64328 18.8433 2.62626 18.3838 2.62626 14.5097C2.62626 10.6298 2.64328 10.1704 2.71134 8.64454C2.77374 7.22647 3.01197 6.46071 3.2105 5.95021C3.47143 5.27521 3.78908 4.7874 4.29391 4.28256C4.80441 3.77206 5.28655 3.46008 5.96155 3.19916C6.47206 3.00063 7.24349 2.76239 8.65588 2.7C10.1817 2.63193 10.6412 2.61492 14.521 2.61492ZM14.521 0C10.5788 0 10.0853 0.0170168 8.53676 0.085084C6.99391 0.153151 5.93319 0.402731 5.01429 0.760084C4.05567 1.13445 3.24454 1.62794 2.43908 2.43908C1.62794 3.24454 1.13445 4.05567 0.760084 5.00861C0.402731 5.93319 0.153151 6.98824 0.085084 8.53109C0.0170168 10.0853 0 10.5788 0 14.521C0 18.4632 0.0170168 18.9567 0.085084 20.5053C0.153151 22.0481 0.402731 23.1088 0.760084 24.0277C1.13445 24.9863 1.62794 25.7975 2.43908 26.6029C3.24454 27.4084 4.05567 27.9076 5.00861 28.2763C5.93319 28.6336 6.98823 28.8832 8.53109 28.9513C10.0796 29.0193 10.5731 29.0363 14.5153 29.0363C18.4576 29.0363 18.9511 29.0193 20.4996 28.9513C22.0424 28.8832 23.1032 28.6336 24.0221 28.2763C24.975 27.9076 25.7861 27.4084 26.5916 26.6029C27.3971 25.7975 27.8962 24.9863 28.2649 24.0334C28.6223 23.1088 28.8718 22.0538 28.9399 20.5109C29.008 18.9624 29.025 18.4689 29.025 14.5267C29.025 10.5845 29.008 10.091 28.9399 8.54244C28.8718 6.99958 28.6223 5.93887 28.2649 5.01996C27.9076 4.05567 27.4141 3.24454 26.6029 2.43908C25.7975 1.63361 24.9863 1.13445 24.0334 0.765756C23.1088 0.408403 22.0538 0.158824 20.5109 0.0907563C18.9567 0.0170168 18.4632 0 14.521 0Z" fill="white"/>
<path d="M14.521 7.06201C10.403 7.06201 7.06201 10.403 7.06201 14.521C7.06201 18.6391 10.403 21.9801 14.521 21.9801C18.6391 21.9801 21.9801 18.6391 21.9801 14.521C21.9801 10.403 18.6391 7.06201 14.521 7.06201ZM14.521 19.3595C11.8494 19.3595 9.6826 17.1927 9.6826 14.521C9.6826 11.8494 11.8494 9.6826 14.521 9.6826C17.1927 9.6826 19.3595 11.8494 19.3595 14.521C19.3595 17.1927 17.1927 19.3595 14.521 19.3595Z" fill="white"/>
<path d="M24.0165 6.76702C24.0165 7.73131 23.2337 8.50841 22.2751 8.50841C21.3108 8.50841 20.5337 7.72564 20.5337 6.76702C20.5337 5.80274 21.3165 5.02563 22.2751 5.02563C23.2337 5.02563 24.0165 5.80841 24.0165 6.76702Z" fill="white"/>
</g>
<defs>
<clipPath id="clip0_31_178">
<rect width="29.042" height="29.042" fill="white"/>
</clipPath>
</defs>
</svg>
