<svg width="30" height="30" viewBox="0 0 30 30" fill="none" xmlns="http://www.w3.org/2000/svg">
<g clip-path="url(#clip0_31_183)">
<path d="M27.0353 0H2.28718C1.10168 0 0.143066 0.935925 0.143066 2.09307V26.9433C0.143066 28.1004 1.10168 29.042 2.28718 29.042H27.0353C28.2208 29.042 29.1851 28.1004 29.1851 26.949V2.09307C29.1851 0.935925 28.2208 0 27.0353 0ZM8.75924 24.7481H4.44832V10.8851H8.75924V24.7481ZM6.60378 8.99622C5.21975 8.99622 4.10231 7.87878 4.10231 6.50042C4.10231 5.12206 5.21975 4.00462 6.60378 4.00462C7.98214 4.00462 9.09958 5.12206 9.09958 6.50042C9.09958 7.87311 7.98214 8.99622 6.60378 8.99622ZM24.8912 24.7481H20.5859V18.0095C20.5859 16.4042 20.5576 14.3338 18.3454 14.3338C16.1048 14.3338 15.7645 16.0866 15.7645 17.896V24.7481H11.4649V10.8851H15.5943V12.7796H15.651C16.2239 11.6905 17.6307 10.5391 19.7237 10.5391C24.0857 10.5391 24.8912 13.4092 24.8912 17.1416V24.7481V24.7481Z" fill="white"/>
</g>
<defs>
<clipPath id="clip0_31_183">
<rect width="29.042" height="29.042" fill="white" transform="translate(0.143066)"/>
</clipPath>
</defs>
</svg>
