<svg width="21" height="30" viewBox="0 0 21 30" fill="none" xmlns="http://www.w3.org/2000/svg">
<g clip-path="url(#clip0_33_202)">
<path d="M8.21249 29.042C3.91951 29.042 0.428711 25.6016 0.428711 21.3705V7.67145C0.428711 3.44041 3.91951 -2.5928e-05 8.21249 -2.5928e-05H13.2164C17.5093 -2.5928e-05 21.0001 3.44041 21.0001 7.67145V21.3705C21.0001 25.6016 17.5093 29.042 13.2164 29.042H8.21249ZM8.21249 26.8501H13.2164C16.3157 26.8501 18.7762 24.4252 18.7762 21.3705V7.67145C18.7762 4.61678 16.3157 2.19182 13.2164 2.19182H8.21249C5.11311 2.19182 2.65265 4.61678 2.65265 7.67145V21.3705C2.65265 24.4252 5.11311 26.8501 8.21249 26.8501ZM6.90421 18.5474L4.3206 12.6031C5.1887 12.7671 5.85355 13.3205 6.07746 13.5767L9.84954 18.7011C11.131 19.2751 17.4376 21.0754 19.3322 21.622L18.9661 24.2658L16.8732 25.7789L16.2456 26.2552C13.7136 26.2552 12.0715 26.3365 11.6064 26.2852C11.1414 26.234 10.9864 26.029 11.1414 25.824C11.2964 25.6191 11.4514 25.4141 11.6064 25.3629L13.7767 24.5429L12.2781 23.3643C9.05381 23.3233 7.48983 23.1081 7.11092 23.0056C6.90421 22.8826 7.0248 22.6469 7.11092 22.5444C7.67931 22.1345 9.35004 21.8099 10.0563 21.622C10.0563 21.622 9.2295 20.9345 8.35105 20.2385C7.47265 19.5424 7.09369 18.9573 6.90421 18.5474Z" fill="white"/>
</g>
<defs>
<clipPath id="clip0_33_202">
<rect width="20.5714" height="29.042" fill="white" transform="translate(0.428711)"/>
</clipPath>
</defs>
</svg>
